<svg xmlns="http://www.w3.org/2000/svg" version="1.1" xmlns:xlink="http://www.w3.org/1999/xlink" xmlns:svgjs="http://svgjs.dev/svgjs" width="2000" height="2000" viewBox="0 0 2000 2000"><g transform="matrix(1,0,0,1,0,0)"><svg viewBox="0 0 280 280" data-background-color="#ffffff" preserveAspectRatio="xMidYMid meet" height="2000" width="2000" xmlns="http://www.w3.org/2000/svg" xmlns:xlink="http://www.w3.org/1999/xlink"><g id="tight-bounds" transform="matrix(1,0,0,1,0,0)"><svg viewBox="0 0 280 280" height="280" width="280"><g><svg viewBox="0 0 280 280" height="280" width="280"><g><svg viewBox="0 0 280 280" height="280" width="280"><g id="textblocktransform"><svg viewBox="0 0 280 280" height="280" width="280" id="textblock"><g><svg viewBox="0 0 280 280" height="280" width="280"><g transform="matrix(1,0,0,1,74.00336708925556,74.00336708925556)"><svg viewBox="0 0 131.99326582148888 131.99326582148888" height="131.99326582148888" width="131.99326582148888"><g><svg xmlns="http://www.w3.org/2000/svg" xmlns:xlink="http://www.w3.org/1999/xlink" version="1.1" x="0" y="0" viewBox="2.7489999999999988 2.749 94.50200000000001 94.50200000000001" enable-background="new 0 0 100 100" xml:space="preserve" height="131.99326582148888" width="131.99326582148888" class="icon-xg-0" data-fill-palette-color="accent" id="xg-0"><g fill="#ff0000" data-fill-palette-color="accent"><g fill="#ff0000" data-fill-palette-color="accent"><path d="M66.875 2.749h-33.75c-16.748 0-30.376 13.627-30.376 30.375v33.751c0 16.748 13.628 30.376 30.376 30.376h33.75c16.748 0 30.376-13.628 30.376-30.376V33.124C97.251 16.376 83.623 2.749 66.875 2.749zM92.749 66.875c0 14.268-11.606 25.874-25.874 25.874h-33.75c-14.268 0-25.874-11.606-25.874-25.874V33.124c0-14.268 11.606-25.875 25.874-25.875h33.75c14.268 0 25.874 11.608 25.874 25.875V66.875z" fill="#ff0000" data-fill-palette-color="accent"></path><path d="M50 13.998c-19.852 0-36.001 16.149-36.001 36.002 0 19.849 16.149 36.001 36.001 36.001S86.001 69.849 86.001 50C86.001 30.147 69.852 13.998 50 13.998zM50 81.499c-17.368 0-31.499-14.131-31.499-31.499 0-17.369 14.131-31.5 31.499-31.5S81.499 32.631 81.499 50C81.499 67.368 67.368 81.499 50 81.499z" fill="#ff0000" data-fill-palette-color="accent"></path><path d="M44.061 34.794c-0.691-0.459-1.578-0.506-2.311-0.112-0.729 0.393-1.188 1.154-1.188 1.984V63.33c0 0.83 0.459 1.592 1.188 1.987 0.335 0.176 0.699 0.264 1.062 0.264 0.435 0 0.871-0.127 1.248-0.376l20-13.335c0.627-0.415 1.003-1.118 1.003-1.87s-0.376-1.455-1.003-1.875L44.061 34.794zM45.063 59.126V40.87L58.755 50 45.063 59.126z" fill="#ff0000" data-fill-palette-color="accent"></path></g></g></svg></g></svg></g><g><path d="M35.982 93.254l-1.097 3.081-8.676-0.473-3.361 9.431 7.018 5.128-1.071 3.007-23.304-17.538 1.338-3.756zM23.486 95.652l-11.04-0.503-3.565-0.331-0.134 0.374 2.975 1.989 8.898 6.516z" fill="#ff0000" data-fill-palette-color="primary"></path><path d="M35.301 49.534l-4.777 6.247 19.896 15.212-1.938 2.535-19.896-15.211-4.771 6.239-2.219-1.696 11.485-15.023z" fill="#ff0000" data-fill-palette-color="primary"></path><path d="M70.371 51.279l-15.768-22.943 8.677-5.963c1.732-1.19 3.398-1.615 4.998-1.276 1.602 0.33 3.089 1.492 4.46 3.486v0c0.634 0.923 1.049 1.76 1.243 2.511 0.194 0.751 0.244 1.425 0.147 2.022-0.087 0.599-0.278 1.128-0.573 1.589-0.295 0.46-0.632 0.836-1.01 1.128v0l0.225 0.328c0.393-0.27 0.892-0.492 1.497-0.667 0.604-0.174 1.261-0.207 1.97-0.099 0.704 0.111 1.434 0.402 2.191 0.871 0.753 0.464 1.477 1.201 2.171 2.211v0c1.445 2.103 2.085 4.064 1.92 5.883-0.167 1.828-1.029 3.277-2.586 4.347v0zM65.635 38.754l5.784 8.415 6.145-4.224c1.054-0.725 1.658-1.549 1.81-2.475 0.152-0.925-0.179-1.98-0.993-3.165v0l-1.042-1.516c-0.811-1.18-1.676-1.864-2.594-2.054-0.922-0.195-1.91 0.07-2.964 0.795v0zM58.816 28.831l5.237 7.62 5.719-3.931c0.94-0.646 1.494-1.389 1.665-2.229 0.165-0.837-0.115-1.783-0.84-2.837v0l-1.036-1.508c-0.725-1.054-1.507-1.655-2.348-1.801-0.846-0.142-1.739 0.109-2.678 0.755v0z" fill="#ff0000" data-fill-palette-color="primary"></path><path d="M149.348 27.891l-0.352-19.096 0.19-4.796-0.408 0.007-1.979 4.83-5.758 12.387-6.211-12.166-2.154-4.674-0.398 0.007 0.365 4.707 0.353 19.096-3.112 0.058-0.514-27.834 4.225-0.078 5.23 10.712 1.964 5.115 0.318-0.006 1.784-5.184 4.82-10.898 4.225-0.078 0.514 27.834z" fill="#ff0000" data-fill-palette-color="primary"></path><path d="M180.325 35.659v0c-1.129-0.405-2.113-0.97-2.952-1.694-0.845-0.726-1.468-1.629-1.869-2.709-0.403-1.074-0.575-2.323-0.515-3.745 0.051-1.418 0.401-3.029 1.048-4.832v0c0.647-1.803 1.402-3.268 2.265-4.395 0.858-1.136 1.785-1.99 2.779-2.562 0.997-0.579 2.052-0.88 3.166-0.902 1.108-0.025 2.226 0.165 3.355 0.571v0c1.123 0.403 2.088 0.961 2.896 1.673 0.801 0.71 1.381 1.598 1.737 2.663 0.353 1.056 0.481 2.289 0.384 3.698-0.095 1.403-0.466 3.005-1.113 4.808v0l-0.256 0.711-12.427-4.462-0.446 1.245c-0.683 1.903-0.759 3.478-0.228 4.725 0.525 1.245 1.552 2.142 3.08 2.69v0c1.298 0.466 2.462 0.567 3.493 0.303 1.025-0.266 1.977-0.878 2.857-1.837v0l1.441 2.134c-1.074 1.108-2.343 1.867-3.807 2.278-1.456 0.407-3.085 0.287-4.888-0.361zM186.738 17.795v0c-1.553-0.558-2.929-0.502-4.126 0.167-1.206 0.673-2.15 1.957-2.831 3.853v0l-0.178 0.496 9.385 3.37 0.178-0.496c1.382-3.849 0.573-6.312-2.428-7.39z" fill="#ff0000" data-fill-palette-color="primary"></path><path d="M215.365 55.793l2.043-2.656-0.315-0.242c-1.144 0.834-2.25 1.217-3.317 1.148-1.073-0.073-2.114-0.498-3.122-1.274v0c-0.972-0.748-1.672-1.604-2.1-2.57-0.433-0.969-0.617-2.018-0.552-3.147 0.062-1.123 0.373-2.31 0.934-3.559 0.556-1.245 1.338-2.521 2.344-3.829v0c1.007-1.308 2.04-2.39 3.101-3.247 1.065-0.862 2.132-1.466 3.202-1.813 1.074-0.353 2.135-0.443 3.184-0.273 1.043 0.167 2.05 0.624 3.021 1.372v0c1.009 0.776 1.685 1.674 2.031 2.692 0.34 1.014 0.253 2.181-0.26 3.501v0l0.315 0.242 7.489-9.73 2.403 1.849-17.998 23.385zM213.034 51.176v0c0.504 0.388 1.039 0.682 1.604 0.883 0.57 0.205 1.123 0.296 1.659 0.273 0.536-0.022 1.049-0.146 1.54-0.37 0.495-0.23 0.92-0.576 1.275-1.039v0l5.058-6.571c0.356-0.462 0.581-0.962 0.677-1.499 0.091-0.532 0.079-1.06-0.036-1.583-0.115-0.524-0.345-1.035-0.689-1.534-0.339-0.495-0.76-0.936-1.264-1.324v0c-1.329-1.023-2.659-1.386-3.992-1.09-1.341 0.298-2.586 1.192-3.734 2.684v0l-2.535 3.293c-1.148 1.492-1.694 2.924-1.638 4.297 0.055 1.364 0.746 2.557 2.075 3.58z" fill="#ff0000" data-fill-palette-color="primary"></path><path d="M254.15 60.547v0c-0.746-0.998-0.681-1.825 0.195-2.479v0l0.51-0.381c0.871-0.651 1.679-0.477 2.425 0.521v0c0.75 1.003 0.69 1.831-0.181 2.481v0l-0.51 0.381c-0.876 0.655-1.689 0.481-2.439-0.523zM232.771 74.642l16.485-12.323 1.815 2.429-16.484 12.322z" fill="#ff0000" data-fill-palette-color="primary"></path><path d="M250.748 111.082l-0.762-2.007c-0.699-1.84-0.128-3.11 1.712-3.809v0l0.372-0.142-0.141-0.371c-1.296 0.116-2.41-0.138-3.342-0.763-0.932-0.625-1.625-1.535-2.079-2.73v0c-0.708-1.865-0.766-3.435-0.173-4.71 0.597-1.283 1.816-2.274 3.657-2.973v0c1.785-0.678 3.425-0.624 4.922 0.162 1.49 0.788 2.712 2.437 3.665 4.946v0l1.317 3.467 2.128-0.808c1.419-0.539 2.342-1.255 2.769-2.147 0.429-0.886 0.385-2.011-0.133-3.374v0c-0.426-1.122-1.01-1.931-1.752-2.43-0.745-0.504-1.673-0.829-2.784-0.974v0l0.936-2.269c1.229 0.1 2.407 0.561 3.534 1.38 1.123 0.829 1.968 1.989 2.535 3.483v0c0.831 2.187 0.933 4.045 0.308 5.573-0.629 1.536-1.975 2.696-4.039 3.48v0l-10.884 4.133 0.735 1.934zM249.239 101.031v0c0.247 0.651 0.588 1.212 1.023 1.685 0.435 0.473 0.907 0.84 1.417 1.1 0.512 0.266 1.04 0.424 1.584 0.473 0.549 0.047 1.072-0.024 1.567-0.213v0l2.91-1.105-1.345-3.541c-0.567-1.493-1.231-2.486-1.992-2.977-0.757-0.5-1.606-0.57-2.548-0.212v0l-1.051 0.398c-0.967 0.367-1.565 0.938-1.795 1.714-0.233 0.769-0.156 1.662 0.23 2.678z" fill="#ff0000" data-fill-palette-color="primary"></path><path d="M16.599 201.809l-1.182-3.263 7.417-5.477-3.612-9.975-9.204 0.541-1.151-3.178 30.884-1.381 1.439 3.973zM25.195 191.41l9.367-7.04 3.144-2.122-0.145-0.402-3.774 0.383-11.673 0.674z" fill="#ff0000" data-fill-palette-color="primary"></path><path d="M60.161 219.467l-5.087-6.598-21.023 16.209-2.064-2.678 21.023-16.208-5.087-6.599 2.346-1.809 12.239 15.874z" fill="#ff0000" data-fill-palette-color="primary"></path><path d="M58.465 252.907l16.635-24.374 9.214 6.289c1.84 1.255 2.902 2.739 3.187 4.449 0.285 1.711-0.296 3.626-1.742 5.745v0c-0.669 0.98-1.34 1.71-2.012 2.19-0.667 0.484-1.312 0.794-1.935 0.93-0.623 0.137-1.22 0.147-1.791 0.03-0.571-0.117-1.071-0.306-1.502-0.568v0l-0.241 0.354c0.416 0.284 0.827 0.693 1.233 1.226 0.406 0.534 0.69 1.169 0.854 1.907 0.159 0.743 0.152 1.576-0.022 2.501-0.17 0.919-0.621 1.915-1.353 2.988v0c-1.524 2.234-3.221 3.62-5.089 4.159-1.864 0.533-3.623 0.235-5.277-0.893v0zM69.026 243.43l-6.098 8.935 6.528 4.456c1.117 0.762 2.164 1.044 3.143 0.845 0.977-0.208 1.893-0.939 2.749-2.193v0l1.098-1.61c0.856-1.254 1.202-2.373 1.041-3.358-0.171-0.984-0.815-1.857-1.933-2.619v0zM76.222 232.886l-5.526 8.097 6.077 4.148c1.002 0.684 1.95 0.946 2.846 0.786 0.886-0.158 1.71-0.795 2.472-1.912v0l1.098-1.609c0.762-1.117 1.057-2.119 0.885-3.007-0.182-0.886-0.773-1.671-1.775-2.355v0z" fill="#ff0000" data-fill-palette-color="primary"></path><path d="M149.495 279.936l0.397-20.249 0.387-5.064-0.417-0.008-2.296 5.026-6.597 12.898-6.087-13.146-2.1-5.033-0.417-0.008 0.19 4.995-0.396 20.249-3.29-0.064 0.577-29.504 4.474 0.088 5.104 11.556 1.881 5.496 0.338 0.007 2.095-5.419 5.552-11.347 4.473 0.088-0.577 29.503z" fill="#ff0000" data-fill-palette-color="primary"></path><path d="M188.04 271.774v0c-1.197 0.431-2.386 0.634-3.564 0.607-1.173-0.029-2.29-0.345-3.354-0.948-1.057-0.606-2.04-1.509-2.952-2.71-0.911-1.201-1.711-2.755-2.397-4.663v0c-0.687-1.908-1.062-3.615-1.126-5.121-0.063-1.506 0.119-2.829 0.547-3.97 0.432-1.149 1.091-2.105 1.978-2.868 0.891-0.772 1.936-1.373 3.134-1.805v0c1.191-0.429 2.354-0.622 3.489-0.58 1.139 0.034 2.21 0.366 3.213 0.999 1.007 0.624 1.947 1.543 2.821 2.756 0.868 1.216 1.645 2.779 2.332 4.687v0l0.273 0.758-13.161 4.74 0.471 1.309c0.725 2.014 1.723 3.356 2.993 4.026 1.274 0.661 2.721 0.7 4.343 0.117v0c1.378-0.496 2.396-1.201 3.053-2.114 0.66-0.907 1.027-2.05 1.101-3.429v0l2.613 0.77c-0.131 1.632-0.655 3.11-1.573 4.435-0.914 1.315-2.325 2.317-4.234 3.004zM181.222 252.841v0c-1.646 0.593-2.735 1.57-3.267 2.93-0.525 1.359-0.425 3.045 0.3 5.06v0l0.186 0.514 9.943-3.581-0.185-0.514c-1.471-4.085-3.797-5.554-6.977-4.409z" fill="#ff0000" data-fill-palette-color="primary"></path><path d="M228.595 247.405l-2.165-2.812-0.339 0.26c0.541 1.399 0.631 2.634 0.269 3.708-0.358 1.078-1.075 2.032-2.152 2.86v0c-1.024 0.788-2.091 1.271-3.202 1.448-1.11 0.177-2.232 0.083-3.366-0.282-1.138-0.37-2.272-1.012-3.401-1.925-1.125-0.907-2.221-2.055-3.288-3.441v0c-1.067-1.387-1.895-2.74-2.484-4.06-0.593-1.325-0.923-2.585-0.99-3.78-0.067-1.195 0.13-2.304 0.589-3.326 0.455-1.028 1.195-1.936 2.22-2.724v0c1.077-0.829 2.182-1.278 3.316-1.348 1.13-0.075 2.302 0.328 3.515 1.209v0l0.339-0.261-7.944-10.322 2.545-1.958 19.083 24.796zM223.228 248.55v0c0.536-0.412 0.985-0.883 1.346-1.413 0.357-0.525 0.597-1.066 0.722-1.622 0.124-0.556 0.136-1.117 0.035-1.682-0.092-0.565-0.328-1.094-0.708-1.588v0l-5.36-6.966c-0.38-0.494-0.831-0.857-1.354-1.091-0.521-0.243-1.067-0.375-1.636-0.397-0.569-0.022-1.153 0.072-1.752 0.282-0.605 0.214-1.175 0.528-1.711 0.94v0c-1.408 1.083-2.14 2.349-2.196 3.798-0.056 1.448 0.526 2.966 1.747 4.552v0l2.68 3.483c1.221 1.586 2.539 2.538 3.953 2.854 1.415 0.317 2.826-0.067 4.234-1.15z" fill="#ff0000" data-fill-palette-color="primary"></path><path d="M228.828 207.454v0c-0.797 1.059-1.657 1.242-2.578 0.548v0l-0.54-0.406c-0.921-0.694-0.983-1.57-0.186-2.63v0c0.797-1.059 1.657-1.242 2.578-0.548v0l0.54 0.407c0.921 0.694 0.983 1.57 0.186 2.629zM249.513 225.042l-17.428-13.12 1.932-2.566 17.427 13.12z" fill="#ff0000" data-fill-palette-color="primary"></path><path d="M270.497 183.379l-0.825 2.133c-0.751 1.941-2.101 2.535-4.048 1.78v0l-0.39-0.15-0.154 0.398c1.105 0.819 1.803 1.807 2.094 2.964 0.294 1.151 0.195 2.361-0.296 3.628v0c-0.763 1.972-1.833 3.249-3.21 3.832-1.371 0.585-3.03 0.501-4.977-0.253v0c-1.891-0.732-3.149-1.937-3.772-3.613-0.617-1.675-0.412-3.838 0.614-6.49v0l1.422-3.671-2.254-0.873c-1.496-0.579-2.73-0.669-3.701-0.27-0.963 0.395-1.725 1.315-2.284 2.762v0c-0.457 1.181-0.572 2.231-0.345 3.15 0.233 0.922 0.736 1.834 1.509 2.738v0l-2.349 1.137c-0.903-0.954-1.504-2.156-1.801-3.608-0.3-1.445-0.146-2.956 0.464-4.532v0c0.895-2.312 2.133-3.848 3.713-4.608 1.583-0.766 3.462-0.728 5.639 0.115v0l11.515 4.457 0.794-2.049zM264.564 192.373v0c0.266-0.686 0.395-1.368 0.387-2.047-0.005-0.684-0.118-1.311-0.339-1.879-0.214-0.566-0.52-1.061-0.918-1.486-0.395-0.43-0.855-0.747-1.38-0.95v0l-3.079-1.192-1.45 3.746c-0.61 1.576-0.789 2.829-0.537 3.758 0.245 0.927 0.866 1.583 1.861 1.968v0l1.103 0.427c1.026 0.397 1.905 0.375 2.638-0.066 0.726-0.444 1.297-1.204 1.714-2.28z" fill="#ff0000" data-fill-palette-color="primary"></path><path d="M3.451 143.336c0-6.226 5.047-11.272 11.272-11.272 6.226 0 11.272 5.047 11.273 11.272 0 6.226-5.047 11.272-11.273 11.273-6.226 0-11.272-5.047-11.272-11.273z" fill="#ff0000" data-fill-palette-color="primary"></path><path d="M254.004 143.336c0-6.226 5.047-11.272 11.273-11.272 6.226 0 11.272 5.047 11.272 11.272 0 6.226-5.047 11.272-11.272 11.273-6.226 0-11.272-5.047-11.273-11.273z" fill="#ff0000" data-fill-palette-color="primary"></path></g></svg></g></svg></g></svg></g><g></g></svg></g><defs></defs></svg><rect width="280" height="280" fill="none" stroke="none" visibility="hidden"></rect></g></svg></g></svg>